<svg xmlns="http://www.w3.org/2000/svg" data-name="Ebene 1" viewBox="0 0 80 40"><path d="M19.76 34.22h1.2l2.72 5.18h-1.3l-.56-1.07h-2.96l-.55 1.07h-1.28l2.72-5.18Zm-.46 3.21h2.1l-1.05-2.09zm8.3 1.6c-.34.26-.94.46-1.5.48-.95 0-1.81-.31-1.81-1.62v-2.16h1.12v2.02c0 .62.28.91.96.91.47 0 .79-.12 1.15-.31v-2.62h1.12v3.67h-.98l-.07-.36Zm2.14-1.48c0-1.21.76-1.94 2.15-1.94.54 0 1.08.14 1.42.36v-1.75h1.12v5.18h-.98l-.08-.4c-.34.31-.94.52-1.55.52-1.32 0-2.09-.73-2.09-1.95m3.58.77v-1.56a2.5 2.5 0 0 0-1.26-.3c-.76 0-1.17.39-1.17 1.07s.41 1.09 1.17 1.09c.53 0 .87-.1 1.26-.3m2.53-4.12h1.12v.97h-1.12zm0 1.5h1.12v3.67h-1.12zm20.19-23.79c-2.04 0-3.92.72-5.39 1.91-1.47-1.19-3.35-1.91-5.39-1.91s-3.92.72-5.39 1.91c-1.47-1.19-3.35-1.91-5.39-1.91s-3.92.72-5.39 1.91a8.55 8.55 0 0 0-5.39-1.91c-4.73 0-8.56 3.83-8.56 8.55s3.83 8.55 8.56 8.55c2.04 0 3.92-.72 5.39-1.91 1.47 1.2 3.35 1.91 5.39 1.91s3.92-.72 5.39-1.91c1.47 1.2 3.35 1.91 5.39 1.91s3.92-.72 5.39-1.91a8.5 8.5 0 0 0 5.39 1.91c4.73 0 8.56-3.83 8.56-8.55s-3.83-8.55-8.56-8.55m-5.4 12.4a6.61 6.61 0 0 1 0-7.68c.78 1.08 1.23 2.41 1.23 3.84s-.46 2.76-1.23 3.84m-10.78 0c-.78-1.08-1.23-2.41-1.23-3.84s.46-2.76 1.23-3.84c.78 1.08 1.23 2.41 1.23 3.84s-.46 2.76-1.23 3.84m-10.79 0c-.78-1.08-1.23-2.41-1.23-3.84s.46-2.76 1.23-3.84c.78 1.08 1.23 2.41 1.23 3.84s-.46 2.76-1.23 3.84m-12.02-3.84c0-3.66 2.97-6.62 6.63-6.62 1.52 0 2.92.51 4.03 1.37a8.51 8.51 0 0 0 0 10.5 6.58 6.58 0 0 1-4.03 1.37c-3.66 0-6.63-2.96-6.63-6.62m13.38 5.25a8.51 8.51 0 0 0 0-10.5c1.12-.86 2.52-1.37 4.03-1.37s2.92.51 4.03 1.37a8.51 8.51 0 0 0 0 10.5c-1.12.86-2.52 1.37-4.03 1.37s-2.92-.51-4.03-1.37m10.79 0a8.51 8.51 0 0 0 0-10.5c1.12-.86 2.52-1.37 4.03-1.37s2.92.51 4.03 1.37a8.51 8.51 0 0 0 0 10.5c-1.12.86-2.52 1.37-4.03 1.37s-2.92-.51-4.03-1.37m14.82 1.37c-1.52 0-2.92-.51-4.03-1.37a8.51 8.51 0 0 0 0-10.5 6.6 6.6 0 0 1 4.03-1.37c3.66 0 6.63 2.96 6.63 6.62s-2.97 6.62-6.63 6.62" style="stroke-width:0;fill:#818080"/><path d="M0 0h80v40H0z" style="fill:none;stroke-width:0"/></svg>