<svg xmlns="http://www.w3.org/2000/svg" id="Ebene_1" data-name="Ebene 1" viewBox="0 0 80 40"><defs><style>.cls-1{fill-rule:evenodd}.cls-1,.cls-3{stroke-width:0;fill:#818080}</style></defs><path d="m24.14 10.21 2.4-2.88a15.1 15.1 0 0 1 3.73 7.8c1.31 8.27-4.33 16.04-12.6 17.35-5.84.92-11.42-1.61-14.67-6.1l.24-.24c2.82 3.85 7.64 6.03 12.67 5.23 7.17-1.14 12.06-7.87 10.92-15.04-.37-2.33-1.33-4.41-2.7-6.13Z" class="cls-3"/><path d="M2.75 19.64v-.07c.02-3.56 2.91-6.45 6.48-6.45s6.27 2.69 6.47 6.09h-.35a5.316 5.316 0 0 0-5.3-4.87c-2.94 0-5.32 2.38-5.32 5.32s2.38 5.32 5.32 5.32 5.32-2.38 5.32-5.32v-.09h8.3v.07c0 5.78-4.68 10.46-10.46 10.46S2.75 25.42 2.75 19.64" class="cls-3"/><path d="m5.31 19.76 2.26-3.9 2.26 3.9-2.26 3.91zm4.57 0 2.26-3.9 2.26 3.9-2.26 3.91zm32.37 6.21v-5.13h-.82l-1.13 2.73c-.12.3-.27.67-.34.88-.07-.21-.23-.59-.35-.88l-1.15-2.73h-.79v5.13h.73v-2.71c0-.31 0-.76-.01-.9.06.15.21.51.33.81l1.23 2.89 1.25-2.89c.12-.29.27-.66.33-.81 0 .15-.01.59-.01.9v2.71h.76Z" class="cls-3"/><path d="M46.54 25.97v-3.85h-.76v2.25c0 .62-.29.98-.79.98s-.79-.28-.79-1.06v-2.18h-.76v2.21c0 1.14.48 1.72 1.37 1.72.4 0 .78-.17.97-.45v.37h.76Z" class="cls-1"/><path d="M50.34 24.92c0-.73-.44-.96-1.3-1.29-.58-.23-.71-.37-.71-.56 0-.21.16-.35.53-.35s.68.11 1 .33l.33-.58a2.3 2.3 0 0 0-1.31-.43c-.77 0-1.31.36-1.31 1.05 0 .61.3.89 1.13 1.21.56.21.89.35.89.65 0 .27-.23.43-.7.43-.36 0-.76-.13-1.12-.38l-.34.57c.39.29.95.49 1.47.49.76 0 1.44-.29 1.44-1.14" class="cls-3"/><path d="M51.35 25.97h.76v-3.85h-.76zm.86-4.83c0-.27-.22-.49-.48-.49s-.49.22-.49.49.22.48.49.48.48-.22.48-.48" class="cls-1"/><path d="m56.27 25.97-1.16-2.56.98-1.29h-.86l-.8 1.12c-.12.18-.32.48-.43.63v-3.25l-.76.4v4.95H54v-1.14l.59-.78.85 1.91h.82Z" class="cls-3"/><path d="M59.42 22.2c-.15-.1-.34-.16-.65-.16-.38 0-.7.19-.88.45v-.37h-.76v3.85h.76v-2.2c0-.65.28-.99.76-.99.25 0 .42.05.58.14l.2-.72Zm2.73 2.68c-.18.24-.53.49-.93.49-.5 0-.74-.26-.74-.64 0-.35.31-.57.79-.57.41 0 .67.07.88.17zm.74 1.09v-2.64c0-.87-.59-1.29-1.44-1.29-.54 0-.95.12-1.32.34l.29.57c.3-.17.61-.24 1-.24.47 0 .73.23.73.65v.29c-.21-.1-.5-.15-.86-.15-.87 0-1.53.39-1.53 1.25 0 .95.71 1.3 1.33 1.3.42 0 .79-.2 1.06-.46v.38z" class="cls-1"/><path d="M65.9 25.21c-.14.08-.36.15-.56.15-.28 0-.4-.1-.4-.46v-2.09h.95v-.69h-.95v-1.5l-.74.4v1.1h-.55v.69h.55v2.22c0 .69.33 1.02.87 1.02.3 0 .56-.07.74-.18l.09-.67Z" class="cls-3"/><path d="M40.69 17.41c0 .51-.25.85-.93.85h-1.37v-1.7h1.39c.58 0 .91.32.91.85m-.21-2.2c0 .34-.21.65-.71.65h-1.38v-1.33h1.38c.51 0 .71.29.71.67Zm.98 2.18c0-.71-.46-1.09-.87-1.2.37-.18.65-.51.65-1.03 0-.87-.58-1.33-1.47-1.33h-2.11v5.13h2.04c1.12 0 1.76-.54 1.76-1.58Zm3.17.48c-.18.24-.53.49-.93.49-.5 0-.74-.26-.74-.64 0-.35.31-.57.79-.57.41 0 .67.07.88.17zm.74 1.1v-2.64c0-.87-.59-1.29-1.44-1.29-.54 0-.95.12-1.32.34l.29.57c.3-.17.61-.24 1-.24.47 0 .73.23.73.65v.29c-.21-.1-.5-.15-.86-.15-.87 0-1.53.39-1.53 1.25 0 .95.71 1.3 1.33 1.3.42 0 .79-.2 1.06-.46v.38z" class="cls-1"/><path d="M49.63 15.12h-.8l-.65 1.9c-.12.33-.28.88-.34 1.11-.04-.21-.22-.78-.34-1.12l-.63-1.88h-.83l1.42 3.78-.56 1.43h.8l1.94-5.21Z" class="cls-3"/><path d="M52.6 16.69h-1.79c.07-.62.37-.97.88-.97.62 0 .87.44.91.97m.77.27c0-1.04-.53-1.93-1.62-1.93-1 0-1.69.7-1.69 2.01s.76 2 1.66 2c.59 0 .99-.18 1.33-.51l-.45-.48c-.26.19-.51.31-.84.31-.47 0-.89-.32-.97-1.06h2.54c0-.08.02-.21.02-.34Zm3.22-1.76c-.15-.1-.34-.16-.65-.16-.38 0-.7.19-.88.45v-.37h-.76v3.85h.76v-2.2c0-.65.28-.99.76-.99.25 0 .42.05.58.14l.2-.72Zm.81 3.77h.76v-3.85h-.76zm.87-4.84c0-.27-.22-.49-.48-.49s-.49.22-.49.49.22.48.49.48.48-.22.48-.48" class="cls-1"/><path d="M62 17.91c0-.73-.44-.96-1.3-1.29-.58-.23-.71-.37-.71-.56 0-.21.16-.35.53-.35s.68.11 1 .33l.33-.58c-.34-.25-.82-.43-1.3-.43-.77 0-1.31.36-1.31 1.05 0 .61.3.89 1.13 1.21.56.21.89.35.89.65 0 .27-.23.43-.7.43-.36 0-.76-.13-1.12-.38l-.34.57c.39.29.95.49 1.47.49.76 0 1.44-.29 1.44-1.14Zm3.76-2.22c-.36-.43-.8-.65-1.36-.65-.94 0-1.69.74-1.69 2.02 0 1.2.73 1.99 1.66 1.99.7 0 1.08-.34 1.38-.72l-.48-.48c-.3.32-.51.48-.87.48-.6 0-.92-.54-.92-1.3s.35-1.28.9-1.28c.34 0 .62.15.94.47l.45-.54Zm4.06 3.28v-2.21c0-1.14-.48-1.72-1.37-1.72-.4 0-.78.17-.97.45v-1.86l-.76.4v4.95h.76v-2.25c0-.62.29-.98.79-.98s.79.28.79 1.06v2.18h.76Z" class="cls-3"/><path d="M73.26 16.69h-1.79c.07-.62.37-.97.88-.97.62 0 .87.44.91.97m.77.27c0-1.04-.53-1.93-1.62-1.93-1 0-1.69.7-1.69 2.01s.76 2 1.66 2c.59 0 .99-.18 1.33-.51l-.45-.48c-.26.19-.51.31-.84.31-.47 0-.89-.32-.97-1.06h2.54c0-.08.02-.21.02-.34Zm3.22-1.76c-.15-.1-.34-.16-.65-.16-.38 0-.7.19-.88.45v-.37h-.76v3.85h.76v-2.2c0-.65.28-.99.76-.99.25 0 .42.05.58.14l.2-.72Z" class="cls-1"/><path d="M0 0h80v40H0z" style="stroke-width:0;fill:none"/></svg>