<svg xmlns="http://www.w3.org/2000/svg" id="Ebene_1" data-name="Ebene 1" viewBox="0 0 80 40"><defs><style>.cls-2{stroke-width:0;fill:#818080}</style></defs><path d="M5.16 15.78h1.65q.99 0 1.53.24c.36.16.64.4.84.73.21.33.31.7.31 1.1q0 .57-.27 1.02c-.27.45-.45.56-.8.75.44.15.77.32 1 .52s.42.44.55.73.2.6.2.93c0 .68-.24 1.25-.74 1.72-.49.47-1.15.7-1.98.7h-2.3v-8.44Zm.82.82v2.7h.48c.58 0 1.01-.06 1.28-.16.27-.11.49-.28.65-.52s.24-.5.24-.78c0-.38-.14-.69-.4-.91-.27-.22-.7-.33-1.28-.33h-.98Zm0 3.55v3.24h1.04c.61 0 1.06-.06 1.34-.18s.51-.31.68-.57.26-.54.26-.83c0-.38-.12-.7-.36-.98s-.58-.47-1-.58c-.28-.07-.78-.1-1.49-.1zm9.83-4.59c1.27 0 2.33.43 3.18 1.28.86.85 1.28 1.9 1.28 3.15s-.42 2.28-1.28 3.14-1.89 1.29-3.12 1.29-2.29-.43-3.14-1.29-1.28-1.9-1.28-3.11c0-.81.2-1.56.58-2.26a4.26 4.26 0 0 1 3.77-2.21m.05.83c-.62 0-1.2.16-1.76.49s-.99.76-1.3 1.32c-.31.55-.47 1.17-.47 1.84 0 1 .34 1.85 1.03 2.54s1.52 1.04 2.49 1.04q.975 0 1.8-.48c.55-.32.98-.75 1.29-1.3s.46-1.16.46-1.84-.16-1.28-.46-1.82a3.4 3.4 0 0 0-1.31-1.3 3.55 3.55 0 0 0-1.78-.48m6.12 7.83v-8.44h1.74c1.25 0 2.16.1 2.72.3.81.29 1.45.78 1.9 1.49.46.71.69 1.55.69 2.53 0 .84-.18 1.59-.54 2.23s-.83 1.12-1.41 1.42c-.58.31-1.39.46-2.43.46h-2.66Zm.8-.79h.97c1.16 0 1.96-.07 2.41-.22.63-.21 1.12-.58 1.48-1.12s.54-1.2.54-1.97c0-.82-.2-1.51-.59-2.09s-.94-.97-1.63-1.19c-.52-.16-1.38-.24-2.59-.24h-.59v6.82Zm7.2-7.65h.97l2.15 3.5 2.11-3.5h.95l-2.64 4.41v4.03h-.83v-4.03zm9.92 6.87.71-.43c.5.93 1.08 1.4 1.74 1.4.28 0 .54-.07.79-.2s.44-.31.56-.53c.13-.22.19-.46.19-.71 0-.28-.1-.56-.28-.83-.26-.38-.74-.83-1.44-1.36s-1.14-.92-1.31-1.15c-.3-.4-.44-.83-.44-1.29 0-.37.09-.7.26-1 .18-.3.42-.54.74-.72s.66-.26 1.04-.26c.4 0 .76.1 1.11.3.34.2.71.56 1.09 1.08l-.68.52c-.32-.42-.58-.7-.81-.83-.22-.13-.46-.2-.73-.2-.34 0-.62.1-.83.31-.22.21-.32.46-.32.76q0 .27.12.54c.08.17.22.36.42.56q.165.165 1.08.84 1.08.81 1.5 1.44c.42.63.4.84.4 1.27 0 .61-.23 1.14-.69 1.6s-1.02.68-1.68.68c-.51 0-.97-.14-1.38-.41-.41-.28-.8-.73-1.14-1.38m5.82-6.05v-.82h4.59v.82h-1.87v7.62h-.85V16.6zm5.84-.82h1.67q1.395 0 1.89.12c.5.12.9.36 1.21.74s.47.84.47 1.39c0 .46-.11.86-.32 1.21-.22.35-.52.61-.92.79q-.6.27-1.65.27l3.01 3.92h-1.03l-3.01-3.92h-.48v3.92h-.83v-8.45Zm.83.82v2.87h1.44c.56.01.97-.04 1.24-.15q.405-.165.63-.51c.15-.24.22-.5.22-.79s-.08-.54-.23-.77-.35-.4-.6-.5-.66-.15-1.23-.15h-1.48Zm6.19-.82h4.81v.82h-3.97v2.65h3.93v.83h-3.93v3.32h3.93v.82h-4.77zm6.25 0h4.81v.82h-3.98v2.65h3.94v.83h-3.94v3.32h3.94v.82h-4.77zm5.41.82v-.82h4.6v.82h-1.87v7.62h-.85V16.6z" class="cls-2"/><path d="M79.34 20c0 4.23-3.62 7.67-8.06 7.67H8.73C4.29 27.67.67 24.23.67 20s3.62-7.67 8.06-7.67h62.55c4.44 0 8.06 3.44 8.06 7.67m.66 0c0-4.6-3.92-8.34-8.73-8.34H8.72C3.92 11.66 0 15.4 0 20s3.92 8.34 8.73 8.34h62.55C76.09 28.34 80 24.6 80 20" class="cls-2"/><path d="M0 0h80v40H0z" style="fill:none;stroke-width:0"/></svg>