<svg xmlns="http://www.w3.org/2000/svg" id="Ebene_1" data-name="Ebene 1" viewBox="0 0 80 40"><defs><style>.cls-2{stroke-width:0;fill:#818080}</style></defs><path d="M20.47 23.54c-.47-.2-.88-.47-1.21-.83-.34-.34-.63-.74-.83-1.21s-.29-.97-.29-1.51.09-1.01.29-1.48.49-.88.83-1.21c.34-.36.74-.63 1.21-.83s.97-.31 1.53-.31c.52 0 1.03.11 1.48.31.47.2.88.47 1.24.83.34.34.63.76.83 1.21.2.47.29.97.29 1.48s-.09 1.03-.29 1.51c-.2.45-.49.88-.83 1.21-.36.36-.76.63-1.24.83-.45.2-.97.31-1.48.31-.56 0-1.06-.11-1.53-.31m-2.34-13.8c0-.34-.11-.61-.34-.83-.22-.2-.49-.31-.81-.31-.34 0-.61.11-.83.31-.2.22-.31.49-.31.83v10.27c0 1.69.61 3.15 1.8 4.34s2.65 1.8 4.36 1.8 3.12-.61 4.34-1.8c1.19-1.19 1.8-2.63 1.8-4.36 0-.83-.16-1.62-.45-2.36a5.7 5.7 0 0 0-1.35-1.98c-1.21-1.19-2.67-1.8-4.36-1.8-1.46 0-2.74.45-3.84 1.37V9.74Z" class="cls-2"/><path d="M35.19 16.44c.47.2.88.49 1.24.83.34.36.61.76.81 1.24.2.45.31.97.31 1.48s-.11 1.06-.31 1.51c-.2.47-.47.88-.81 1.24-.36.34-.76.63-1.24.83-.47.2-.97.29-1.51.29s-1.03-.09-1.48-.29c-.47-.2-.88-.49-1.24-.83-.34-.36-.63-.76-.83-1.24-.2-.45-.29-.97-.29-1.51s.09-1.03.29-1.48c.2-.47.49-.88.83-1.24.36-.34.76-.63 1.24-.83.45-.2.97-.29 1.48-.29s1.03.09 1.51.29M40 18.86c.11-.4.29-.76.54-1.1s.52-.63.85-.85c.34-.25.7-.43 1.08-.56.4-.13.81-.2 1.21-.2.43 0 .83.07 1.21.2q.57.195 1.08.54c.31.25.61.52.85.88.25.34.43.7.56 1.1h-7.39Zm3.69 7.29c1.55 0 2.9-.49 4.02-1.48.22-.22.34-.49.34-.83s-.11-.61-.34-.83c-.22-.2-.49-.31-.81-.31-.27 0-.52.09-.76.29-.34.29-.72.52-1.12.65-.4.16-.83.22-1.33.22-.4 0-.81-.07-1.19-.2q-.6-.165-1.08-.54a3 3 0 0 1-.85-.83 3.9 3.9 0 0 1-.56-1.12h8.7c.34 0 .61-.11.81-.31.22-.22.34-.49.34-.83 0-1.71-.61-3.15-1.8-4.36-1.21-1.19-2.65-1.8-4.36-1.8-.52 0-.99.04-1.46.16-.45.11-.88.27-1.28.49-.4.2-.79.47-1.17.79-.36.31-.72.7-1.08 1.12a7.1 7.1 0 0 0-2.25-1.91c-.81-.43-1.73-.65-2.76-.65-1.69 0-3.15.61-4.34 1.8s-1.8 2.65-1.8 4.34.61 3.17 1.8 4.36 2.65 1.8 4.34 1.8c1.03 0 1.96-.2 2.76-.63.83-.43 1.57-1.08 2.25-1.93.2.27.43.54.65.76 1.19 1.19 2.65 1.8 4.34 1.8Z" class="cls-2"/><path d="M52.11 18.51c.2-.47.49-.88.83-1.21.34-.36.74-.63 1.21-.83s.97-.31 1.53-.31c.52 0 1.03.11 1.48.31.47.2.88.47 1.24.83.34.34.63.76.83 1.21.2.47.29.97.29 1.48s-.09 1.03-.29 1.51c-.2.45-.49.88-.83 1.21-.36.36-.76.63-1.24.83-.45.2-.97.31-1.48.31-.56 0-1.06-.11-1.53-.31s-.88-.47-1.21-.83c-.34-.34-.63-.74-.83-1.21s-.29-.97-.29-1.51.09-1.01.29-1.48m5.91 7.19c.72-.29 1.39-.74 2-1.35 1.19-1.19 1.8-2.63 1.8-4.36 0-.83-.16-1.62-.45-2.36a5.7 5.7 0 0 0-1.35-1.98c-1.21-1.19-2.67-1.8-4.34-1.8s-3.17.61-4.36 1.8-1.8 2.65-1.8 4.34v10.27c0 .34.11.61.31.83.22.2.49.31.83.31.31 0 .58-.11.81-.31.22-.22.34-.49.34-.83V24.8q1.65 1.35 3.84 1.35c.85 0 1.64-.16 2.36-.45Z" class="cls-2"/><path d="M0 0h80v40H0z" style="fill:none;stroke-width:0"/></svg>