<svg xmlns="http://www.w3.org/2000/svg" id="Ebene_1" data-name="Ebene 1" viewBox="0 0 80 40"><defs><style>.cls-2{stroke-width:0;fill:#818080}</style></defs><path d="M47.12 18.48h.47v3.04h-.47zm-3.26 2.57v-2.57h-.47v3.04h2.8v-.47zm7.47-2.57v2.37l-2.34-2.36v-.01h-.46v3.04h.46v-2.37l2.34 2.37h.46v-3.04zm4.21.47v-.47h-2.81v3.04h2.81v-.47H53.2v-.81h1.87v-.47H53.2v-.82z" class="cls-2"/><path d="M43.43 24.78c-1.29 1.39-3.19 2.3-5.24 2.3h-.85c-3.91 0-7.08-3.17-7.08-7.08s3.16-7.07 7.06-7.08h.89c2.08 0 3.95.9 5.24 2.33l4.69-4.37a13.45 13.45 0 0 0-9.94-4.37h-.85c-7.45 0-13.49 6.04-13.49 13.49s6.04 13.49 13.49 13.49h.85c3.9 0 7.47-1.7 9.93-4.34l-4.69-4.37Z" class="cls-2"/><path d="M0 0h80v40H0z" style="fill:none;stroke-width:0"/></svg>