<svg xmlns="http://www.w3.org/2000/svg" data-name="Ebene 1" viewBox="0 0 80 40"><path d="m39.32 17.02-2.62 6-2.62-6h-2.25l3.72 8.47-2.49 5.89h2.3l6.26-14.36zm17.95-.37c-2.51 0-4.59 2.02-4.59 4.57s2.04 4.59 4.59 4.59c1.62 0 2.93-.8 3.77-1.95l-1.67-.84c-.46.61-1.23 1.04-2.06 1.04-1.27 0-2.29-.92-2.58-2.14h6.94c.04-.15.07-.39.07-.71 0-2.51-2.01-4.57-4.48-4.57m-2.45 3.64c.35-1.09 1.29-1.88 2.47-1.88s2.05.8 2.38 1.88zm8.69 2.77c-.73 0-1.32.59-1.32 1.32s.59 1.32 1.32 1.32 1.32-.59 1.32-1.32-.59-1.32-1.32-1.32M21.11 14.5c1.65 0 3.03.91 3.81 2.3l1.97-.97-.02-.04a6.7 6.7 0 0 0-5.78-3.34c-3.72 0-6.71 2.97-6.71 6.69s2.99 6.67 6.71 6.67c2.3 0 4.51-1.24 5.74-3.27l-1.97-.97c-.71 1.19-2.04 2.19-3.75 2.19-2.51 0-4.46-2.14-4.46-4.64s1.95-4.63 4.46-4.63m7.23-1.7h2.19v12.67h-2.19zm20.82 4.9c-.79-.65-1.8-1.04-2.91-1.04a4.58 4.58 0 1 0 0 9.16c1.11 0 2.12-.39 2.92-1.05l.03.69h2.16V12.8h-2.19v4.89Zm-2.62 6.37c-1.56 0-2.83-1.27-2.83-2.83s1.27-2.83 2.83-2.83 2.83 1.27 2.83 2.83-1.27 2.83-2.83 2.83" style="stroke-width:0;fill:#818080"/><path d="M0 0h80v40H0z" style="fill:none;stroke-width:0"/></svg>