<svg xmlns="http://www.w3.org/2000/svg" data-name="Ebene 1" viewBox="0 0 80 40"><path d="M39.58 8.76c-.96-.63-3.94-2.79-6.98-2.79s-6.01 2.16-6.98 2.79c-.34.23-.57.62-.57 1.06v3.87c0 .38.26.55.44.6.27.07.45-.05.56-.13.66-.5 3.96-3.31 6.55-3.31s5.89 2.82 6.55 3.31c.11.08.29.2.56.13.18-.05.44-.22.44-.6V9.82c0-.44-.23-.83-.57-1.06m17.73 3.26c-.27-.07-.45.05-.56.13-.66.5-3.96 3.31-6.55 3.31s-5.89-2.82-6.55-3.31c-.11-.08-.29-.2-.56-.13-.18.05-.44.22-.44.6v3.87c0 .44.23.83.57 1.06.96.63 3.94 2.79 6.98 2.79s6.01-2.16 6.98-2.79c.34-.23.57-.62.57-1.06v-3.87c0-.38-.26-.55-.44-.6M46.02 27.67l-.82-.24c-.79-.21-.85-.61-.85-.8 0-.54.49-.94 1.09-.94.64 0 1.07.41 1.07.98h1.22c0-1.3-.99-2.08-2.26-2.08s-2.35.83-2.35 2.06c0 .6.26 1.5 1.75 1.88l.86.24c.58.16.99.44.99.92 0 .54-.45.97-1.15.97-.76 0-1.28-.49-1.29-1.03h-1.22c0 1.17.99 2.12 2.47 2.12 1.36 0 2.41-.84 2.41-2.11 0-1.11-.83-1.67-1.92-1.97m4.64-2.46H49.5v1.72h-.84v.93h.84v3.77h1.16v-3.77h1v-.93h-1zm3.16 2.73v-1h-1.17v4.69h1.17v-1.64c0-1.32.42-2.08 1.19-2.08.17 0 .41.03.68.17l.23-1.11c-.18-.1-.48-.16-.76-.16-.58 0-1.09.34-1.35 1.13Zm5.03-1.12c-1.34 0-2.49.97-2.49 2.46s1.15 2.47 2.49 2.47 2.5-.98 2.5-2.47-1.17-2.46-2.5-2.46m0 3.84c-.72 0-1.32-.56-1.32-1.39s.59-1.38 1.32-1.38 1.33.57 1.33 1.38-.6 1.39-1.33 1.39m9.35-3.84c-.47 0-1.21.21-1.58.94-.28-.59-.83-.94-1.52-.94-.57 0-1.19.3-1.4.84v-.72h-1.17v4.69h1.17v-2.5c0-.89.54-1.22 1.09-1.22.5 0 .89.4.89 1.15v2.57h1.17v-2.32c0-.93.38-1.4 1.05-1.4.54 0 .93.39.93 1.15v2.57h1.15V29c0-1.37-.62-2.18-1.8-2.18Zm-55.37-2.11H10v6.92h2.83c1.98 0 3.13-1.49 3.13-3.45s-1.15-3.47-3.13-3.47m0 5.82h-1.49V25.8h1.49c1.26 0 1.9 1.09 1.9 2.38s-.64 2.35-1.9 2.35m4.4-3.6h1.17v4.69h-1.17zm6.12.62c-.33-.48-.96-.73-1.57-.73-1.24 0-2.3.95-2.3 2.46s1.07 2.47 2.31 2.47c.57 0 1.23-.25 1.56-.73v.11c0 1.35-.56 1.86-1.47 1.86-.51 0-1.02-.3-1.26-.75l-.96.44c.41.84 1.26 1.37 2.22 1.37 1.61 0 2.63-.91 2.63-3.02v-4.08h-1.17v.61Zm-1.38 3.11c-.72 0-1.32-.61-1.32-1.4s.59-1.37 1.32-1.37c.67 0 1.36.54 1.36 1.37s-.64 1.4-1.36 1.4m3.91-3.73h1.17v4.69h-1.17zm4.47-1.72h-1.16v1.72h-.85v.93h.85v3.77h1.16v-3.77h1v-.93h-1zm5.48 2.38c-.31-.49-.93-.77-1.58-.77-1.33 0-2.29 1.04-2.29 2.46s1 2.47 2.26 2.47c.67 0 1.3-.34 1.61-.85v.73H37v-4.69h-1.17zm-1.37 3.07c-.76 0-1.34-.63-1.34-1.39s.57-1.38 1.33-1.38c.69 0 1.36.57 1.36 1.38s-.62 1.39-1.35 1.39m3.9-6.28h1.17v7.24h-1.17zm-20.55.18c-.41 0-.76.3-.76.71s.35.71.76.71.75-.31.75-.71-.33-.71-.75-.71m8.65 0c-.41 0-.76.3-.76.71s.35.71.76.71.75-.31.75-.71-.33-.71-.75-.71" style="stroke-width:0;fill:#818080"/><path d="M0 0h80v40H0z" style="fill:none;stroke-width:0"/></svg>